<svg width="46" height="39" viewBox="0 0 46 39" fill="none" xmlns="http://www.w3.org/2000/svg">
<path d="M39.45 25.329H33.398C32.9098 25.329 32.4415 25.523 32.0963 25.8683C31.751 26.2135 31.557 26.6818 31.557 27.17C31.557 27.6583 31.751 28.1266 32.0963 28.4718C32.4415 28.8171 32.9098 29.011 33.398 29.011H39.446C39.9343 29.011 40.4026 28.8171 40.7478 28.4718C41.0931 28.1266 41.287 27.6583 41.287 27.17C41.287 26.6818 41.0931 26.2135 40.7478 25.8683C40.4026 25.523 39.9343 25.329 39.446 25.329H39.45Z" fill="white"/>
<path d="M11.6341 25.329H5.58606C5.0978 25.329 4.62953 25.523 4.28427 25.8683C3.93902 26.2135 3.74506 26.6818 3.74506 27.17C3.74506 27.6583 3.93902 28.1266 4.28427 28.4718C4.62953 28.8171 5.0978 29.011 5.58606 29.011H11.6341C12.1223 29.011 12.5906 28.8171 12.9358 28.4718C13.2811 28.1266 13.4751 27.6583 13.4751 27.17C13.4751 26.6818 13.2811 26.2135 12.9358 25.8683C12.5906 25.523 12.1223 25.329 11.6341 25.329Z" fill="white"/>
<path d="M43.243 15.379H40.291C39.8133 15.3948 39.3604 15.5956 39.028 15.9392C38.6956 16.2827 38.5097 16.742 38.5097 17.22C38.5097 17.6981 38.6956 18.1574 39.028 18.5009C39.3604 18.8444 39.8133 19.0453 40.291 19.061H43.243C43.7208 19.0453 44.1737 18.8444 44.5061 18.5009C44.8385 18.1574 45.0244 17.6981 45.0244 17.22C45.0244 16.742 44.8385 16.2827 44.5061 15.9392C44.1737 15.5956 43.7208 15.3948 43.243 15.379Z" fill="white"/>
<path d="M7.49805 17.22C7.50349 16.9829 7.462 16.747 7.37598 16.526C7.28995 16.3049 7.1611 16.103 6.9968 15.932C6.8325 15.7609 6.636 15.624 6.41861 15.5291C6.20122 15.4342 5.96721 15.3832 5.73004 15.379H2.77704C2.29928 15.3948 1.84636 15.5956 1.51396 15.9392C1.18156 16.2827 0.995728 16.742 0.995728 17.22C0.995728 17.6981 1.18156 18.1574 1.51396 18.5009C1.84636 18.8444 2.29928 19.0453 2.77704 19.061H5.72905C5.96621 19.057 6.20024 19.0061 6.41768 18.9114C6.63512 18.8166 6.83169 18.6798 6.99608 18.5088C7.16047 18.3378 7.28945 18.136 7.3756 17.915C7.46174 17.694 7.50335 17.4582 7.49805 17.221V17.22Z" fill="white"/>
<path d="M39.3621 9.11102H40.4431C40.9313 9.11102 41.3996 8.91705 41.7448 8.5718C42.0901 8.22655 42.2841 7.75828 42.2841 7.27002C42.2841 6.78175 42.0901 6.31349 41.7448 5.96823C41.3996 5.62298 40.9313 5.42902 40.4431 5.42902H39.3621C38.8738 5.42902 38.4055 5.62298 38.0603 5.96823C37.715 6.31349 37.5211 6.78175 37.5211 7.27002C37.5211 7.75828 37.715 8.22655 38.0603 8.5718C38.4055 8.91705 38.8738 9.11102 39.3621 9.11102Z" fill="white"/>
<path d="M5.58606 9.11102H6.66705C7.15532 9.11102 7.62359 8.91705 7.96884 8.5718C8.3141 8.22655 8.50806 7.75828 8.50806 7.27002C8.50806 6.78175 8.3141 6.31349 7.96884 5.96823C7.62359 5.62298 7.15532 5.42902 6.66705 5.42902H5.58606C5.0978 5.42902 4.62953 5.62298 4.28427 5.96823C3.93902 6.31349 3.74506 6.78175 3.74506 7.27002C3.74506 7.75828 3.93902 8.22655 4.28427 8.5718C4.62953 8.91705 5.0978 9.11102 5.58606 9.11102Z" fill="white"/>
<path d="M32.2141 20.522C34.1973 18.2903 35.2909 15.4075 35.2871 12.422C35.2882 9.12855 33.9811 5.96951 31.6531 3.63984C29.3251 1.31017 26.167 0.000706009 22.8736 -0.000487465C19.5801 -0.00168094 16.421 1.30549 14.0914 3.63348C11.7617 5.96146 10.4523 9.11956 10.4511 12.413V12.422C10.4478 15.4076 11.5418 18.2903 13.525 20.522C15.1497 22.7895 16.399 25.3037 17.225 27.968L17.2311 32.326C17.2205 33.0689 17.3564 33.8065 17.6311 34.4968C17.9058 35.1871 18.3139 35.8165 18.8319 36.349C19.35 36.8816 19.968 37.3067 20.6505 37.6003C21.3329 37.8939 22.0666 38.05 22.8095 38.0599C23.5524 38.0697 24.2899 37.9331 24.9799 37.6577C25.67 37.3824 26.299 36.9737 26.831 36.4552C27.363 35.9366 27.7876 35.3182 28.0805 34.6355C28.3734 33.9527 28.5289 33.2189 28.538 32.476C28.538 32.426 28.538 32.376 28.538 32.326L28.5171 26.968C29.3352 24.607 30.5893 22.4204 32.2141 20.522ZM22.8801 34.474C22.3048 34.4707 21.7544 34.2394 21.3494 33.8309C20.9444 33.4224 20.7179 32.87 20.7196 32.2948C20.7212 31.7196 20.9509 31.1685 21.3582 30.7623C21.7656 30.3561 22.3173 30.128 22.8926 30.128C23.4678 30.128 24.0196 30.3561 24.4269 30.7623C24.8342 31.1685 25.0639 31.7196 25.0655 32.2948C25.0672 32.87 24.8407 33.4224 24.4357 33.8309C24.0307 34.2394 23.4803 34.4707 22.9051 34.474H22.8801ZM25.2801 25.965C25.1622 26.3548 25.095 26.7581 25.0801 27.165C24.3648 26.8653 23.5959 26.7147 22.8204 26.7225C22.0449 26.7302 21.2792 26.8961 20.57 27.21V27.204C20.5783 26.7917 20.5357 26.3799 20.443 25.978C19.5158 23.1506 18.0236 20.5411 16.057 18.308C14.6201 16.6848 13.8269 14.5919 13.827 12.424C13.8521 10.046 14.8143 7.77382 16.5048 6.10106C18.1952 4.4283 20.4774 3.49003 22.8556 3.49003C25.2337 3.49003 27.5159 4.4283 29.2063 6.10106C30.8968 7.77382 31.859 10.046 31.8841 12.424C31.8849 14.5916 31.0924 16.6846 29.656 18.308C27.6974 20.5398 26.209 23.1437 25.2801 25.964V25.965Z" fill="white"/>
<path d="M27.4931 8.16099C27.1114 7.80641 26.6213 7.59081 26.1021 7.54899C24.8421 7.39299 21.029 7.26999 21.029 7.26999C20.549 7.24798 20.0796 7.41576 19.7223 7.73707C19.365 8.05838 19.1485 8.5074 19.1196 8.98706C19.0907 9.46671 19.2517 9.93848 19.5679 10.3004C19.884 10.6623 20.3299 10.8852 20.809 10.921L21.5541 10.966L17.9121 14.116C17.5466 14.4398 17.3247 14.8956 17.2953 15.383C17.2658 15.8704 17.4312 16.3495 17.7551 16.715C18.0789 17.0805 18.5346 17.3023 19.022 17.3318C19.5095 17.3612 19.9886 17.1958 20.3541 16.872L23.9911 13.726L23.947 14.462C23.9126 14.9459 24.0717 15.4236 24.3895 15.7902C24.7073 16.1567 25.1577 16.382 25.6416 16.4165C26.1254 16.451 26.6032 16.2918 26.9698 15.974C27.3363 15.6562 27.5616 15.2059 27.5961 14.722V14.691V14.681C27.5961 14.681 27.8241 11.081 27.8801 9.88599C27.9675 9.28296 27.8298 8.66885 27.4931 8.16099Z" fill="white"/>
</svg>
