<svg width="44" height="39" viewBox="0 0 44 39" fill="none" xmlns="http://www.w3.org/2000/svg">
<path d="M39.355 3.92599L34.364 3.899L34.335 3.845C34.174 3.555 34.011 3.266 33.914 3.067C32.614 0.393001 30.677 0 29.633 0H15.166C14.111 0 12.154 0.400001 10.888 3.067C10.767 3.319 10.6 3.63399 10.433 3.94699L4.70697 3.93399C3.45669 3.94482 2.26175 4.45109 1.38423 5.34174C0.506703 6.23238 0.0182398 7.4347 0.0259655 8.685L-0.00103489 33.238C-0.00753838 34.4964 0.483852 35.7064 1.36596 36.604C1.79407 37.0467 2.30683 37.3987 2.87374 37.6392C3.44066 37.8797 4.05015 38.0038 4.66597 38.004H39.325C40.5744 37.9911 41.7678 37.4831 42.6433 36.5915C43.5187 35.6999 44.0048 34.4975 43.995 33.248V8.679C44.0023 7.43568 43.5193 6.23956 42.6508 5.34987C41.7823 4.46018 40.5981 3.9486 39.355 3.92599ZM40.325 33.244C40.3267 33.3759 40.3023 33.5069 40.2532 33.6293C40.2041 33.7517 40.1312 33.8632 40.0388 33.9574C39.9464 34.0516 39.8363 34.1265 39.7148 34.1779C39.5933 34.2293 39.4629 34.2562 39.331 34.257H4.67096C4.53845 34.257 4.40727 34.2307 4.28502 34.1796C4.16277 34.1284 4.05191 34.0535 3.95886 33.9592C3.86582 33.8648 3.79245 33.7529 3.74303 33.63C3.69361 33.507 3.66911 33.3755 3.67096 33.243L3.69796 8.69C3.69651 8.55809 3.72117 8.42719 3.77053 8.30486C3.81988 8.18252 3.89295 8.07116 3.98553 7.97719C4.07811 7.88321 4.18837 7.80849 4.30995 7.75731C4.43154 7.70613 4.56205 7.67952 4.69396 7.679L12.167 7.696C12.714 7.696 13.006 7.007 13.167 6.687C13.405 6.197 13.933 5.24399 14.167 4.75299C14.321 4.43199 14.614 3.744 15.161 3.744H29.628C30.173 3.744 30.466 4.428 30.628 4.744C30.864 5.225 31.405 6.144 31.641 6.629C31.797 6.947 32.088 7.629 32.63 7.629L39.33 7.666C39.4615 7.66744 39.5914 7.69479 39.7123 7.74651C39.8332 7.79822 39.9427 7.87327 40.0346 7.96736C40.1264 8.06146 40.1989 8.17275 40.2477 8.29486C40.2965 8.41697 40.3207 8.54751 40.319 8.679L40.325 33.244Z" fill="white"/>
<path d="M22 10.902C20.0465 10.902 18.1369 11.4813 16.5126 12.5666C14.8883 13.6519 13.6224 15.1944 12.8748 16.9992C12.1272 18.804 11.9316 20.7899 12.3127 22.7059C12.6938 24.6218 13.6345 26.3818 15.0159 27.7631C16.3972 29.1444 18.1571 30.0851 20.0731 30.4662C21.989 30.8473 23.9749 30.6517 25.7797 29.9041C27.5845 29.1566 29.1271 27.8906 30.2124 26.2663C31.2977 24.6421 31.877 22.7325 31.877 20.779C31.877 18.1594 30.8364 15.6472 28.9841 13.7949C27.1318 11.9426 24.6195 10.902 22 10.902ZM22 26.956C20.7783 26.956 19.584 26.5937 18.5682 25.915C17.5524 25.2362 16.7607 24.2715 16.2932 23.1428C15.8256 22.0141 15.7033 20.7721 15.9416 19.5739C16.18 18.3757 16.7683 17.275 17.6322 16.4112C18.496 15.5473 19.5967 14.959 20.7949 14.7207C21.9931 14.4823 23.2351 14.6047 24.3638 15.0722C25.4925 15.5397 26.4572 16.3314 27.1359 17.3472C27.8147 18.363 28.177 19.5573 28.177 20.779C28.1751 22.4166 27.5237 23.9867 26.3657 25.1447C25.2077 26.3027 23.6376 26.9541 22 26.956Z" fill="white"/>
<path d="M34.854 10.301C34.3378 10.301 33.8331 10.4541 33.4039 10.7409C32.9747 11.0277 32.6402 11.4353 32.4426 11.9122C32.2451 12.3891 32.1934 12.9139 32.2941 13.4202C32.3948 13.9265 32.6434 14.3916 33.0084 14.7566C33.3734 15.1216 33.8385 15.3702 34.3448 15.4709C34.8511 15.5716 35.3758 15.5199 35.8528 15.3224C36.3297 15.1248 36.7373 14.7903 37.0241 14.3611C37.3109 13.9319 37.464 13.4272 37.464 12.911C37.4637 12.2189 37.1886 11.5552 36.6992 11.0658C36.2098 10.5764 35.5461 10.3013 34.854 10.301Z" fill="white"/>
</svg>
