<svg width="51" height="38" viewBox="0 0 51 38" fill="none" xmlns="http://www.w3.org/2000/svg">
<path d="M50.7798 22.8221L39.7239 1.12899C39.7179 1.11699 39.7089 1.10705 39.7029 1.09505C39.664 1.02272 39.6205 0.952933 39.5728 0.886066L39.5308 0.826007C39.4728 0.748563 39.4093 0.675382 39.3409 0.607013C39.3329 0.598013 39.324 0.591087 39.314 0.583087C39.2512 0.522626 39.1842 0.466528 39.1138 0.415119C39.0938 0.400119 39.0728 0.385197 39.0518 0.370197C38.9706 0.314228 38.8858 0.263658 38.7979 0.219074C38.3661 0.00625618 37.8746 -0.0522767 37.4048 0.053058C36.9351 0.158393 36.5154 0.421351 36.2159 0.798175L26.0069 13.784L15.784 0.797199C15.4844 0.421239 15.0653 0.158917 14.5962 0.0537905C14.1272 -0.051336 13.6362 0.00692366 13.2049 0.219074C13.1162 0.26294 13.0311 0.313539 12.95 0.370197L12.886 0.415119C12.816 0.466303 12.749 0.521757 12.6858 0.581134C12.6758 0.590134 12.666 0.598013 12.658 0.607013C12.5893 0.675421 12.5253 0.748598 12.4668 0.826007C12.4518 0.846007 12.4388 0.866066 12.4248 0.886066C12.3763 0.953809 12.3324 1.02478 12.293 1.09822C12.287 1.10922 12.279 1.11921 12.273 1.13021L1.21781 22.8231C1.05524 23.141 0.980451 23.4966 1.00102 23.8531C1.02158 24.2096 1.13695 24.5541 1.335 24.8512L9.45487 37.075C9.63865 37.3498 9.88508 37.577 10.1739 37.7379C10.4627 37.8987 10.7857 37.9885 11.116 38.0001H11.1978C11.5146 38.0006 11.8274 37.9296 12.1128 37.7921C12.3982 37.6546 12.649 37.4542 12.846 37.2061L26.0069 20.4652L39.1868 37.2071C39.3835 37.4552 39.634 37.6554 39.9192 37.7928C40.2045 37.9302 40.5174 38.001 40.834 38.0001H40.919C41.2496 37.9877 41.5724 37.8969 41.8611 37.7354C42.1499 37.5739 42.3963 37.3463 42.5799 37.0711L50.6619 24.847C50.8597 24.5504 50.9749 24.2066 50.9956 23.8507C51.0164 23.4948 50.9418 23.1397 50.7798 22.8221ZM11.3438 32.4351L5.47587 23.6012L14.5159 5.86409L23.3799 17.1241L11.3438 32.4351ZM40.689 32.4351L28.637 17.1261L37.4859 5.8702L46.5249 23.608L40.689 32.4351Z" fill="white"/>
</svg>
