<svg width="46" height="40" viewBox="0 0 46 40" fill="none" xmlns="http://www.w3.org/2000/svg">
<path d="M36.783 25.298C36.5401 25.2981 36.2995 25.2503 36.075 25.1573C35.8506 25.0643 35.6467 24.9279 35.475 24.756L31.986 21.216C31.81 21.0451 31.6697 20.841 31.5733 20.6155C31.4769 20.3899 31.4263 20.1475 31.4244 19.9022C31.4226 19.6569 31.4695 19.4137 31.5626 19.1868C31.6556 18.9598 31.7928 18.7536 31.9662 18.5802C32.1396 18.4067 32.3458 18.2695 32.5728 18.1765C32.7998 18.0835 33.043 18.0365 33.2883 18.0384C33.5335 18.0402 33.776 18.0908 34.0015 18.1872C34.2271 18.2836 34.4312 18.4239 34.602 18.6L36.756 20.806L41.816 15.798C41.9828 15.6162 42.1842 15.4696 42.4085 15.3669C42.6328 15.2641 42.8753 15.2072 43.1219 15.1995C43.3684 15.1917 43.6141 15.2334 43.8443 15.322C44.0745 15.4105 44.2847 15.5442 44.4626 15.7152C44.6404 15.8862 44.7823 16.0909 44.8798 16.3175C44.9774 16.5441 45.0287 16.7879 45.0307 17.0346C45.0327 17.2812 44.9853 17.5258 44.8915 17.754C44.7976 17.9821 44.659 18.1891 44.484 18.363L38.117 24.731C37.9463 24.9081 37.742 25.0495 37.516 25.1468C37.2901 25.2442 37.047 25.2955 36.801 25.298H36.783Z" fill="white"/>
<path d="M13.681 27.8729C12.5802 27.8729 11.5041 28.1994 10.5887 28.811C9.67342 29.4226 8.96002 30.2919 8.53874 31.3089C8.11747 32.326 8.00724 33.4451 8.222 34.5248C8.43677 35.6045 8.96687 36.5963 9.74529 37.3747C10.5237 38.1531 11.5155 38.6832 12.5952 38.898C13.6749 39.1127 14.794 39.0025 15.8111 38.5812C16.8281 38.16 17.6974 37.4466 18.309 36.5312C18.9206 35.6159 19.247 34.5398 19.247 33.4389C19.247 31.9627 18.6606 30.547 17.6168 29.5032C16.573 28.4593 15.1572 27.8729 13.681 27.8729ZM13.627 35.6729C13.1721 35.6729 12.7275 35.538 12.3492 35.2853C11.971 35.0326 11.6762 34.6734 11.5021 34.2531C11.328 33.8328 11.2825 33.3704 11.3712 32.9242C11.46 32.4781 11.679 32.0682 12.0007 31.7466C12.3224 31.4249 12.7322 31.2059 13.1783 31.1171C13.6245 31.0284 14.0869 31.0739 14.5072 31.248C14.9275 31.4221 15.2867 31.7169 15.5394 32.0951C15.7922 32.4733 15.9271 32.918 15.9271 33.3729C15.9271 33.9826 15.685 34.5673 15.2541 34.9986C14.8232 35.4298 14.2387 35.6724 13.629 35.6729H13.627Z" fill="white"/>
<path d="M12.235 11.4419C12.4039 11.6145 12.6052 11.752 12.8274 11.8464C13.0496 11.9408 13.2884 11.9903 13.5298 11.992C13.7712 11.9937 14.0106 11.9475 14.2341 11.8562C14.4576 11.7649 14.6609 11.6303 14.8321 11.4601C15.0033 11.2898 15.1391 11.0874 15.2317 10.8644C15.3243 10.6414 15.3718 10.4023 15.3715 10.1609C15.3713 9.91943 15.3232 9.68043 15.2301 9.45767C15.137 9.2349 15.0007 9.03277 14.829 8.86295L14.821 8.85595L12.4581 6.48795L14.823 4.12295C14.9956 3.95412 15.1331 3.75279 15.2275 3.53057C15.3219 3.30835 15.3714 3.06963 15.3731 2.8282C15.3747 2.58676 15.3286 2.34738 15.2373 2.12387C15.146 1.90035 15.0114 1.69713 14.8412 1.52591C14.6709 1.35469 14.4685 1.21887 14.2455 1.12628C14.0225 1.03369 13.7834 0.986169 13.542 0.986451C13.3005 0.986734 13.0615 1.03482 12.8388 1.12793C12.616 1.22104 12.4139 1.35733 12.2441 1.52895L12.237 1.53595L9.87206 3.90095L7.50604 1.53595C7.16198 1.19791 6.69831 1.00946 6.21597 1.01164C5.73364 1.01382 5.27168 1.20644 4.93068 1.54757C4.58968 1.88871 4.39723 2.35073 4.39523 2.83307C4.39324 3.31541 4.58187 3.77901 4.92005 4.12295L7.28505 6.48795L4.92005 8.85294C4.58066 9.19591 4.39055 9.65909 4.39111 10.1416C4.39168 10.6241 4.58288 11.0868 4.92307 11.429C5.26326 11.7712 5.72486 11.965 6.20735 11.9684C6.68984 11.9718 7.15413 11.7843 7.49906 11.4469L7.50604 11.439L9.87206 9.07395L12.235 11.4419Z" fill="white"/>
<path d="M27.727 19.5959C27.6765 19.0776 27.4529 18.5915 27.0921 18.216C26.2521 17.263 23.481 14.6419 23.481 14.6419C23.1371 14.3038 22.6735 14.1152 22.1912 14.1171C21.7088 14.1191 21.2468 14.3116 20.9057 14.6526C20.5646 14.9936 20.3719 15.4555 20.3697 15.9379C20.3676 16.4202 20.556 16.8839 20.8941 17.2279L21.422 17.7559H2.83905C2.35079 17.7559 1.88252 17.9499 1.53726 18.2952C1.19201 18.6404 0.998047 19.1087 0.998047 19.5969C0.998047 20.0852 1.19201 20.5535 1.53726 20.8987C1.88252 21.244 2.35079 21.438 2.83905 21.438H21.4151L20.8941 21.9589C20.7215 22.1278 20.584 22.3292 20.4897 22.5515C20.3954 22.7737 20.346 23.0125 20.3444 23.254C20.3428 23.4954 20.389 23.7348 20.4804 23.9583C20.5717 24.1818 20.7065 24.385 20.8768 24.5562C21.0471 24.7273 21.2496 24.8631 21.4726 24.9556C21.6957 25.0481 21.9348 25.0955 22.1763 25.0951C22.4177 25.0947 22.6567 25.0465 22.8795 24.9533C23.1022 24.8601 23.3043 24.7237 23.474 24.5519L23.481 24.5449C23.481 24.5449 26.036 22.0059 26.874 21.1449C27.3391 20.751 27.6428 20.1996 27.727 19.5959Z" fill="white"/>
</svg>
