<svg width="44" height="38" viewBox="0 0 44 38" fill="none" xmlns="http://www.w3.org/2000/svg">
<path d="M38.676 31.36L38.69 34.926L40.578 37.339C40.6554 37.4633 40.762 37.5669 40.8885 37.6407C41.015 37.7145 41.1575 37.7563 41.3039 37.7625C41.4502 37.7687 41.5958 37.7391 41.7281 37.6763C41.8604 37.6134 41.9753 37.5193 42.063 37.402L43.963 34.941L43.951 31.376L38.676 31.36Z" fill="white"/>
<path d="M41.346 0.0409546C39.876 0.0409546 38.681 1.78195 38.678 3.94095L38.644 28.981L43.966 29L44 3.95595C44.004 1.79895 42.815 0.0459546 41.346 0.0409546Z" fill="white"/>
<path d="M30.657 -4.70345e-05H3.679C2.71894 -0.0150224 1.79219 0.351716 1.10236 1.01961C0.412536 1.6875 0.0160496 2.60191 0 3.56195V34.437C0.0160496 35.397 0.412536 36.3114 1.10236 36.9793C1.79219 37.6472 2.71894 38.0139 3.679 37.999H30.657C31.6171 38.0139 32.5438 37.6472 33.2336 36.9793C33.9235 36.3114 34.32 35.397 34.336 34.437V3.56195C34.32 2.60191 33.9235 1.6875 33.2336 1.01961C32.5438 0.351716 31.6171 -0.0150224 30.657 -4.70345e-05ZM17.169 32.113C16.7027 32.0976 16.2512 31.9454 15.8709 31.6752C15.4906 31.405 15.1982 31.0287 15.0303 30.5935C14.8623 30.1582 14.8263 29.6831 14.9266 29.2274C15.0268 28.7718 15.2591 28.3558 15.5943 28.0312C15.9294 27.7067 16.3528 27.488 16.8114 27.4025C17.27 27.317 17.7437 27.3684 18.1734 27.5503C18.603 27.7322 18.9696 28.0365 19.2273 28.4254C19.4851 28.8142 19.6227 29.2704 19.623 29.737C19.6182 30.0542 19.5508 30.3674 19.4249 30.6585C19.2989 30.9497 19.1167 31.2132 18.8887 31.4339C18.6608 31.6546 18.3916 31.8281 18.0965 31.9447C17.8014 32.0612 17.4862 32.1184 17.169 32.113ZM30.66 33.329C30.6555 33.5689 30.5562 33.7973 30.3839 33.9643C30.2115 34.1313 29.98 34.2232 29.74 34.22H4.599C4.35903 34.2232 4.12754 34.1313 3.95515 33.9643C3.78275 33.7973 3.68347 33.5689 3.679 33.329V4.45296C3.68347 4.21301 3.78275 3.98459 3.95515 3.81763C4.12754 3.65066 4.35903 3.55874 4.599 3.56195H29.74C29.98 3.55874 30.2115 3.65066 30.3839 3.81763C30.5562 3.98459 30.6555 4.21301 30.66 4.45296V33.329Z" fill="white"/>
</svg>
