<svg width="64" height="64" viewBox="0 0 64 64" fill="none" xmlns="http://www.w3.org/2000/svg">
<g clip-path="url(#clip0_121_2)">
<rect width="64" height="64" rx="32" fill="#52AC9C" fill-opacity="0.6"/>
<path d="M45.5123 15.1218C45.2431 16.3404 44.6976 17.2522 43.8758 17.8572C43.0357 18.4336 42.1001 18.6079 41.069 18.3802C40.0378 18.1524 39.2627 17.6003 38.7435 16.7237C38.2295 15.8236 38.1071 14.7643 38.3762 13.5457C38.6402 12.3505 39.1922 11.4647 40.0323 10.8883C40.8776 10.2885 41.8158 10.1024 42.8469 10.3302C43.8546 10.5528 44.6155 11.1141 45.1295 12.0141C45.6487 12.8907 45.7762 13.9266 45.5123 15.1218ZM31.3808 12.0007C31.1117 13.2193 30.5662 14.1311 29.7444 14.7361C28.9043 15.3125 27.9687 15.4868 26.9375 15.2591C25.9064 15.0313 25.1312 14.4792 24.6121 13.6026C24.0981 12.7025 23.9757 11.6432 24.2448 10.4246C24.5088 9.22937 25.0608 8.34358 25.9009 7.76719C26.7461 7.16737 27.6843 6.98133 28.7155 7.20907C29.7232 7.43164 30.4841 7.99294 30.9981 8.89297C31.5172 9.76956 31.6448 10.8055 31.3808 12.0007Z" fill="white"/>
<path d="M9.03265 33.2862L47.2096 51.5617L45.7422 58.2056L7.56526 39.9301L9.03265 33.2862Z" fill="white"/>
<path d="M51.9078 32.1896C49.2548 33.9632 46.0518 35.1114 42.2987 35.6343C38.5456 36.1572 34.6654 35.9761 30.658 35.091C26.6037 34.1956 22.9729 32.7178 19.7658 30.6576C16.5404 28.5688 14.1058 26.1263 12.4622 23.33L13.9529 16.5807L14.5857 16.7205C16.4715 19.644 18.966 22.1489 22.0691 24.2352C25.1539 26.2929 28.5008 27.7203 32.1098 28.5174C35.672 29.3042 39.271 29.4232 42.9069 28.8744C46.548 28.3022 49.8317 27.1226 52.7579 25.3357L53.3907 25.4754L51.9078 32.1896Z" fill="white"/>
</g>
<defs>
<clipPath id="clip0_121_2">
<rect width="64" height="64" fill="white"/>
</clipPath>
</defs>
</svg>
